<?xml version="1.0" standalone="no"?>
<!DOCTYPE svg PUBLIC "-//W3C//DTD SVG 20010904//EN"
 "http://www.w3.org/TR/2001/REC-SVG-20010904/DTD/svg10.dtd">
<svg version="1.0" xmlns="http://www.w3.org/2000/svg"
 width="400.000000pt" height="400.000000pt" viewBox="0 0 400.000000 400.000000"
 preserveAspectRatio="xMidYMid meet">

<g transform="translate(0.000000,400.000000) scale(0.100000,-0.100000)"
fill="#000000" stroke="none">
<path d="M1654 2491 c-110 -18 -194 -76 -247 -170 l-32 -56 -5 110 -5 110
-156 3 c-117 2 -159 -1 -166 -10 -6 -7 -54 -193 -108 -413 -53 -220 -102 -419
-108 -443 -24 -92 -36 -60 -152 413 l-111 450 -92 3 c-77 2 -93 0 -98 -13 -4
-9 21 -123 55 -253 127 -492 183 -697 197 -723 21 -41 59 -66 118 -80 101 -22
188 9 230 81 12 19 59 183 107 364 47 181 88 321 90 310 3 -10 6 -181 8 -379
1 -198 6 -364 10 -368 4 -4 46 -7 92 -5 l84 3 5 115 5 115 32 -56 c66 -116
167 -175 321 -185 91 -7 293 10 324 27 16 9 18 24 18 132 l1 122 28 -62 c67
-143 199 -223 371 -223 183 0 322 92 380 252 l20 53 -6 -80 c-2 -44 -7 -105
-10 -136 -7 -74 1 -81 108 -77 l83 3 3 168 2 167 -189 0 -190 0 -11 -40 c-33
-121 -182 -174 -303 -107 -35 20 -87 99 -87 134 0 9 -19 13 -69 13 -59 0 -74
4 -98 24 -27 23 -28 28 -28 119 0 87 2 98 24 121 20 21 34 26 90 28 l66 3 8
65 c9 78 39 143 76 169 66 47 179 51 243 8 50 -34 76 -80 89 -163 l13 -74 85
0 c66 0 82 3 73 12 -21 21 -13 28 34 28 41 0 45 -2 39 -20 -6 -19 -2 -20 64
-20 l70 0 3 133 3 132 110 0 c122 -1 172 -17 208 -66 27 -37 26 -117 -2 -164
l-20 -35 34 0 c49 0 87 -36 94 -90 l6 -44 37 38 c47 48 68 111 68 201 0 226
-142 335 -438 335 -108 0 -273 -19 -290 -33 -10 -8 -12 -29 -8 -81 4 -39 9
-98 11 -131 l5 -60 -24 62 c-41 109 -103 171 -215 215 -81 32 -251 32 -333 -1
-152 -60 -237 -210 -238 -418 l0 -73 -83 0 c-51 0 -88 -5 -95 -12 -8 -8 -12
-67 -12 -200 l0 -188 -82 0 c-98 0 -152 21 -191 71 -43 58 -49 97 -45 324 3
241 10 266 87 320 41 29 47 30 144 29 87 0 115 -5 190 -31 101 -35 100 -36 95
53 -3 53 -6 60 -36 80 -81 55 -254 84 -378 65z"/>
<path d="M3587 2424 c-15 -15 -6 -40 13 -40 15 0 20 6 18 20 -3 21 -20 31 -31
20z m23 -14 c0 -5 -2 -10 -4 -10 -3 0 -8 5 -11 10 -3 6 -1 10 4 10 6 0 11 -4
11 -10z"/>
<path d="M3273 1763 c-13 -2 -23 -7 -23 -10 0 -10 153 -299 168 -315 12 -15
32 -18 108 -18 51 0 95 4 98 8 2 4 -35 82 -83 172 l-87 165 -79 1 c-44 1 -90
0 -102 -3z"/>
</g>
</svg>
